<mxfile host="app.diagrams.net" agent="Mozilla/5.0 (Windows NT 10.0; Win64; x64) AppleWebKit/537.36 (KHTML, like Gecko) Chrome/138.0.0.0 Safari/537.36" version="28.0.4">
  <diagram name="Page-1" id="kHf8eIHmRtxHFr1ClOmx">
    <mxGraphModel dx="925" dy="540" grid="1" gridSize="10" guides="1" tooltips="1" connect="1" arrows="1" fold="1" page="1" pageScale="1" pageWidth="850" pageHeight="1100" math="0" shadow="0">
      <root>
        <mxCell id="0" />
        <mxCell id="1" parent="0" />
        <mxCell id="IJjXscn16ARMpo_6g08i-4" value="Arduino Nano&amp;nbsp;&lt;div&gt;on&amp;nbsp;&lt;/div&gt;&lt;div&gt;Expansion Shield&lt;/div&gt;" style="rounded=0;whiteSpace=wrap;html=1;" vertex="1" parent="1">
          <mxGeometry x="595" y="570" width="180" height="130" as="geometry" />
        </mxCell>
        <mxCell id="IJjXscn16ARMpo_6g08i-25" style="edgeStyle=orthogonalEdgeStyle;rounded=0;orthogonalLoop=1;jettySize=auto;html=1;" edge="1" parent="1" source="IJjXscn16ARMpo_6g08i-5">
          <mxGeometry relative="1" as="geometry">
            <mxPoint x="425" y="300" as="targetPoint" />
          </mxGeometry>
        </mxCell>
        <mxCell id="IJjXscn16ARMpo_6g08i-5" value="LI-Po 1000mAh&lt;div&gt;Battery&lt;/div&gt;" style="rounded=0;whiteSpace=wrap;html=1;" vertex="1" parent="1">
          <mxGeometry x="335" y="170" width="180" height="60" as="geometry" />
        </mxCell>
        <mxCell id="IJjXscn16ARMpo_6g08i-34" style="edgeStyle=orthogonalEdgeStyle;rounded=0;orthogonalLoop=1;jettySize=auto;html=1;" edge="1" parent="1" source="IJjXscn16ARMpo_6g08i-8">
          <mxGeometry relative="1" as="geometry">
            <mxPoint x="685" y="560" as="targetPoint" />
          </mxGeometry>
        </mxCell>
        <mxCell id="IJjXscn16ARMpo_6g08i-35" value="&lt;font style=&quot;font-size: 17px;&quot;&gt;5V&lt;/font&gt;" style="edgeLabel;html=1;align=center;verticalAlign=middle;resizable=0;points=[];" vertex="1" connectable="0" parent="IJjXscn16ARMpo_6g08i-34">
          <mxGeometry x="-0.2336" y="3" relative="1" as="geometry">
            <mxPoint y="1" as="offset" />
          </mxGeometry>
        </mxCell>
        <mxCell id="IJjXscn16ARMpo_6g08i-8" value="&lt;span id=&quot;docs-internal-guid-cb007342-7fff-e742-d5ec-4286a9313ec5&quot;&gt;&lt;span style=&quot;font-family: Arial, sans-serif; background-color: transparent; font-variant-numeric: normal; font-variant-east-asian: normal; font-variant-alternates: normal; font-variant-position: normal; font-variant-emoji: normal; vertical-align: baseline; white-space-collapse: preserve;&quot;&gt;&lt;font style=&quot;color: light-dark(rgb(0, 176, 80), rgb(255, 255, 255));&quot;&gt;LM2596S DC-DC Buck Converter Power Supply&lt;/font&gt;&lt;/span&gt;&lt;/span&gt;" style="rounded=0;whiteSpace=wrap;html=1;" vertex="1" parent="1">
          <mxGeometry x="590" y="270" width="190" height="160" as="geometry" />
        </mxCell>
        <mxCell id="IJjXscn16ARMpo_6g08i-26" style="edgeStyle=orthogonalEdgeStyle;rounded=0;orthogonalLoop=1;jettySize=auto;html=1;" edge="1" parent="1" source="IJjXscn16ARMpo_6g08i-12">
          <mxGeometry relative="1" as="geometry">
            <mxPoint x="425" y="160" as="targetPoint" />
          </mxGeometry>
        </mxCell>
        <mxCell id="IJjXscn16ARMpo_6g08i-12" value="START" style="ellipse;whiteSpace=wrap;html=1;" vertex="1" parent="1">
          <mxGeometry x="365" y="30" width="120" height="80" as="geometry" />
        </mxCell>
        <mxCell id="IJjXscn16ARMpo_6g08i-27" style="edgeStyle=orthogonalEdgeStyle;rounded=0;orthogonalLoop=1;jettySize=auto;html=1;" edge="1" parent="1" source="IJjXscn16ARMpo_6g08i-19">
          <mxGeometry relative="1" as="geometry">
            <mxPoint x="590" y="350" as="targetPoint" />
          </mxGeometry>
        </mxCell>
        <mxCell id="IJjXscn16ARMpo_6g08i-28" value="&lt;font style=&quot;font-size: 17px;&quot;&gt;ON&lt;/font&gt;&lt;div&gt;&lt;font style=&quot;font-size: 17px;&quot;&gt;12v&lt;/font&gt;&lt;/div&gt;" style="edgeLabel;html=1;align=center;verticalAlign=middle;resizable=0;points=[];" vertex="1" connectable="0" parent="IJjXscn16ARMpo_6g08i-27">
          <mxGeometry x="0.0113" y="-5" relative="1" as="geometry">
            <mxPoint as="offset" />
          </mxGeometry>
        </mxCell>
        <mxCell id="IJjXscn16ARMpo_6g08i-36" style="edgeStyle=orthogonalEdgeStyle;rounded=0;orthogonalLoop=1;jettySize=auto;html=1;" edge="1" parent="1" source="IJjXscn16ARMpo_6g08i-19">
          <mxGeometry relative="1" as="geometry">
            <mxPoint x="425" y="770" as="targetPoint" />
          </mxGeometry>
        </mxCell>
        <mxCell id="IJjXscn16ARMpo_6g08i-37" value="&lt;font style=&quot;font-size: 17px;&quot;&gt;OFF&lt;/font&gt;" style="edgeLabel;html=1;align=center;verticalAlign=middle;resizable=0;points=[];" vertex="1" connectable="0" parent="IJjXscn16ARMpo_6g08i-36">
          <mxGeometry x="-0.2136" y="3" relative="1" as="geometry">
            <mxPoint as="offset" />
          </mxGeometry>
        </mxCell>
        <mxCell id="IJjXscn16ARMpo_6g08i-19" value="Power" style="rhombus;whiteSpace=wrap;html=1;" vertex="1" parent="1">
          <mxGeometry x="385" y="310" width="80" height="80" as="geometry" />
        </mxCell>
        <mxCell id="IJjXscn16ARMpo_6g08i-38" value="END" style="ellipse;whiteSpace=wrap;html=1;" vertex="1" parent="1">
          <mxGeometry x="365" y="780" width="120" height="80" as="geometry" />
        </mxCell>
      </root>
    </mxGraphModel>
  </diagram>
</mxfile>
